<?xml version="1.0" encoding="utf-8"?>
<!-- Generator: Adobe Illustrator 25.4.1, SVG Export Plug-In . SVG Version: 6.00 Build 0)  -->
<svg version="1.1" id="Layer_1" xmlns="http://www.w3.org/2000/svg" xmlns:xlink="http://www.w3.org/1999/xlink" x="0px" y="0px"
	 viewBox="0 0 595.3 595.3" style="enable-background:new 0 0 595.3 595.3;" xml:space="preserve">
<style type="text/css">
	.st0{fill:#F9B233;stroke:#000000;stroke-width:8;stroke-miterlimit:10;}
	.st1{fill:none;stroke:#000000;stroke-width:8;stroke-miterlimit:10;}
	.st2{stroke:#000000;stroke-miterlimit:10;}
</style>
<g>
	<path class="st0" d="M591,474.6c0,64.5-52.7,117.2-117.2,117.2H120.7c-64.5,0-117.2-52.7-117.2-117.2V121.5
		C3.5,57,56.2,4.3,120.7,4.3h353C538.2,4.3,591,57,591,121.5L591,474.6L591,474.6z"/>
	<path class="st1" d="M591,474.6c0,64.5-52.7,117.2-117.2,117.2H120.7c-64.5,0-117.2-52.7-117.2-117.2V121.5
		C3.5,57,56.2,4.3,120.7,4.3h353C538.2,4.3,591,57,591,121.5L591,474.6L591,474.6z"/>
</g>
<polygon class="st2" points="352.1,105.2 298,319.1 274.7,319.7 183,317.5 237.8,103.6 "/>
<polygon class="st2" points="420,265.9 176,490.9 257.3,265.9 "/>
<path class="st2" d="M265.3,258"/>
</svg>
