<?xml version="1.0" encoding="utf-8"?>
<!-- Generator: Adobe Illustrator 25.4.1, SVG Export Plug-In . SVG Version: 6.00 Build 0)  -->
<svg version="1.1" id="Layer_1" xmlns="http://www.w3.org/2000/svg" xmlns:xlink="http://www.w3.org/1999/xlink" x="0px" y="0px"
	 viewBox="0 0 595.3 595.3" style="enable-background:new 0 0 595.3 595.3;" xml:space="preserve">
<style type="text/css">
	.st0{fill:#F98A00;}
	.st1{stroke:#F98A00;stroke-width:9;stroke-miterlimit:10;}
	.st2{fill:#111111;}
</style>
<g>
	<path class="st0" d="M595.3,476.5c0,65.4-53.4,118.8-118.7,118.8H118.7C53.4,595.3,0,541.9,0,476.5V118.7C0,53.4,53.4,0,118.7,0
		h357.7c65.3,0,118.8,53.4,118.8,118.8V476.5z"/>
	<path class="st0" d="M595.3,476.5c0,65.4-53.4,118.8-118.7,118.8H118.7C53.4,595.3,0,541.9,0,476.5V118.7C0,53.4,53.4,0,118.7,0
		h357.7c65.3,0,118.8,53.4,118.8,118.8V476.5z"/>
</g>
<path class="st1" d="M183,317.5"/>
<g>
	<path class="st2" d="M273.3,66.3h154.1c6.2,0,9.9,7.2,6.4,12.5L329.5,238.4c-3.4,5.2,0.1,12.4,6.2,12.5l66.8,1.9
		c6.5,0.2,9.9,8.2,5.6,13.3L190.3,526.2c-5.8,6.9-16.4,0.1-13-8.3l76.1-190.2c2.1-5.3-1.6-11.1-7.1-11.1h-78.3
		c-5.7,0-9.4-6.1-7-11.4L266.3,70.9C267.5,68.1,270.3,66.3,273.3,66.3z"/>
	<path class="st2" d="M273.3,66.3v5h154.1c0.4,0,0.8,0.1,1.1,0.2c0.5,0.2,0.9,0.6,1.2,1.1c0.3,0.5,0.5,1.1,0.5,1.7
		c0,0.6-0.1,1.1-0.5,1.7L325.3,235.6c-1.5,2.2-2.2,4.8-2.2,7.2c0,3.3,1.2,6.4,3.4,8.8c1.1,1.2,2.4,2.2,3.9,3
		c1.5,0.7,3.3,1.2,5.1,1.2l66.8,1.9c0.4,0,0.8,0.1,1.1,0.2c0.4,0.2,0.8,0.6,1.1,1.1c0.3,0.5,0.5,1.1,0.5,1.7c0,0.4-0.1,0.7-0.2,1
		c-0.1,0.3-0.3,0.6-0.6,1L186.5,523c-0.4,0.5-0.7,0.7-1,0.8c-0.3,0.1-0.6,0.2-0.9,0.2c-0.3,0-0.7-0.1-1-0.2
		c-0.5-0.2-1.1-0.6-1.4-1.1c-0.3-0.5-0.5-1-0.5-1.6c0-0.4,0.1-0.8,0.3-1.4L258,329.5c0.6-1.6,1-3.3,1-4.9c0-3.4-1.3-6.6-3.6-9
		c-1.1-1.2-2.5-2.2-4.1-2.9c-1.6-0.7-3.3-1.1-5.1-1.1h-78.3c-0.4,0-0.7-0.1-1-0.2c-0.5-0.2-0.9-0.6-1.2-1.1
		c-0.3-0.5-0.5-1.1-0.5-1.7c0-0.4,0.1-0.9,0.3-1.3L270.8,73c0.2-0.6,0.6-1,1.1-1.3c0.4-0.3,0.9-0.4,1.4-0.4V66.3v-5
		c-2.5,0-4.9,0.8-6.9,2.1c-2,1.3-3.6,3.2-4.7,5.5L156.3,303c-0.8,1.8-1.2,3.6-1.2,5.4c0,3.4,1.3,6.6,3.5,9c1.1,1.2,2.5,2.2,4.1,2.9
		c1.6,0.7,3.3,1.1,5.2,1.1h78.3c0.4,0,0.7,0.1,1,0.2c0.5,0.2,0.9,0.6,1.2,1.1c0.3,0.5,0.5,1.1,0.5,1.7c0,0.4-0.1,0.8-0.2,1.2
		L172.7,516c-0.7,1.7-1,3.4-1,5.1c0,1.8,0.4,3.6,1.1,5.2c1.1,2.4,2.7,4.3,4.8,5.6c2,1.3,4.5,2.1,7,2.2c1.7,0,3.5-0.4,5.1-1.1
		c1.7-0.8,3.2-2,4.4-3.5l217.7-260.1c1-1.2,1.8-2.6,2.3-4.1c0.5-1.4,0.7-2.9,0.7-4.4c0-3.3-1.2-6.4-3.3-8.8c-1.1-1.2-2.4-2.3-3.9-3
		c-1.5-0.7-3.3-1.2-5.1-1.2l-66.8-1.9c-0.4,0-0.7-0.1-1-0.2c-0.4-0.2-0.9-0.6-1.2-1.1c-0.3-0.5-0.5-1.1-0.5-1.7
		c0-0.6,0.1-1.1,0.5-1.7L438,81.6c1.5-2.2,2.2-4.8,2.2-7.2c0-3.4-1.3-6.5-3.5-9c-1.1-1.2-2.5-2.2-4.1-3c-1.6-0.7-3.4-1.1-5.2-1.1
		H273.3V66.3z"/>
</g>
</svg>
